<?xml version="1.0" encoding="UTF-8" standalone="no"?>
<!DOCTYPE svg PUBLIC "-//W3C//DTD SVG 1.1//EN"
 "http://www.w3.org/Graphics/SVG/1.1/DTD/svg11.dtd">
<!-- Generated by graphviz version 2.44.0 (20200518.1210)
 -->
<!-- Pages: 1 -->
<svg width="164pt" height="185pt"
 viewBox="0.00 0.00 164.18 184.60" xmlns="http://www.w3.org/2000/svg" xmlns:xlink="http://www.w3.org/1999/xlink">
<g id="graph0" class="graph" transform="scale(1 1) rotate(0) translate(4 180.6)">
<polygon fill="white" stroke="transparent" points="-4,4 -4,-180.6 160.18,-180.6 160.18,4 -4,4"/>
<!-- n0 -->
<g id="node1" class="node">
<title>n0</title>
<polygon fill="white" stroke="black" stroke-width="2" points="89.77,-125.4 34.08,-125.4 34.08,-102.6 89.77,-102.6 89.77,-125.4"/>
<text text-anchor="middle" x="61.92" y="-110.4" font-family="Helvetica,sans-Serif" font-weight="bold" font-size="12.00" fill="blue">rconcat</text>
</g>
<!-- n2 -->
<g id="node3" class="node">
<title>n2</title>
<polygon fill="white" stroke="black" stroke-width="2" points="51.77,-74 0.08,-74 0.08,-51.2 51.77,-51.2 51.77,-74"/>
<text text-anchor="middle" x="25.92" y="-59" font-family="Helvetica,sans-Serif" font-weight="bold" font-size="12.00">&quot;Hello&quot;</text>
</g>
<!-- n0&#45;&gt;n2 -->
<g id="edge2" class="edge">
<title>n0&#45;&gt;n2</title>
<path fill="none" stroke="black" stroke-width="2" d="M51.27,-98.38C45.57,-90.57 38.7,-81.13 33.55,-74.06"/>
<polygon fill="black" stroke="black" stroke-width="2" points="49.93,-99.51 54.29,-102.52 52.76,-97.45 49.93,-99.51"/>
</g>
<!-- n3 -->
<g id="node4" class="node">
<title>n3</title>
<polygon fill="white" stroke="black" stroke-width="2" points="125.77,-74 70.08,-74 70.08,-51.2 125.77,-51.2 125.77,-74"/>
<text text-anchor="middle" x="97.92" y="-59" font-family="Helvetica,sans-Serif" font-weight="bold" font-size="12.00" fill="blue">rconcat</text>
</g>
<!-- n0&#45;&gt;n3 -->
<g id="edge3" class="edge">
<title>n0&#45;&gt;n3</title>
<path fill="none" stroke="black" stroke-width="2" d="M72.58,-98.38C78.27,-90.57 85.15,-81.13 90.3,-74.06"/>
<polygon fill="black" stroke="black" stroke-width="2" points="71.09,-97.45 69.56,-102.52 73.92,-99.51 71.09,-97.45"/>
</g>
<!-- n1 -->
<g id="node2" class="node">
<title>n1</title>
<polygon fill="white" stroke="black" stroke-width="2" points="107.93,-176.8 15.91,-176.8 15.91,-154 107.93,-154 107.93,-176.8"/>
<text text-anchor="middle" x="61.92" y="-161.8" font-family="Helvetica,sans-Serif" font-weight="bold" font-size="12.00" fill="darkgreen">&lt;PROGRAM&gt;</text>
</g>
<!-- n1&#45;&gt;n0 -->
<g id="edge1" class="edge">
<title>n1&#45;&gt;n0</title>
<path fill="none" stroke="black" stroke-width="2" d="M61.92,-148.9C61.92,-141.27 61.92,-132.27 61.92,-125.46"/>
<polygon fill="black" stroke="black" stroke-width="2" points="60.17,-148.92 61.92,-153.92 63.67,-148.92 60.17,-148.92"/>
</g>
<!-- n4 -->
<g id="node5" class="node">
<title>n4</title>
<polygon fill="white" stroke="black" stroke-width="2" points="81.78,-22.6 54.07,-22.6 54.07,0.2 81.78,0.2 81.78,-22.6"/>
<text text-anchor="middle" x="67.92" y="-7.6" font-family="Helvetica,sans-Serif" font-weight="bold" font-size="12.00">&quot;,&quot;</text>
</g>
<!-- n3&#45;&gt;n4 -->
<g id="edge4" class="edge">
<title>n3&#45;&gt;n4</title>
<path fill="none" stroke="black" stroke-width="2" d="M88.78,-46.54C84.09,-38.82 78.49,-29.6 74.28,-22.66"/>
<polygon fill="black" stroke="black" stroke-width="2" points="87.47,-47.76 91.56,-51.12 90.46,-45.94 87.47,-47.76"/>
</g>
<!-- n5 -->
<g id="node6" class="node">
<title>n5</title>
<polygon fill="white" stroke="black" stroke-width="2" points="155.94,-22.6 99.91,-22.6 99.91,0.2 155.94,0.2 155.94,-22.6"/>
<text text-anchor="middle" x="127.92" y="-7.6" font-family="Helvetica,sans-Serif" font-weight="bold" font-size="12.00">&quot; world&quot;</text>
</g>
<!-- n3&#45;&gt;n5 -->
<g id="edge5" class="edge">
<title>n3&#45;&gt;n5</title>
<path fill="none" stroke="black" stroke-width="2" d="M107.07,-46.54C111.76,-38.82 117.36,-29.6 121.57,-22.66"/>
<polygon fill="black" stroke="black" stroke-width="2" points="105.39,-45.94 104.29,-51.12 108.38,-47.76 105.39,-45.94"/>
</g>
</g>
</svg>
