<?xml version="1.0" encoding="UTF-8" standalone="no"?>
<!DOCTYPE svg PUBLIC "-//W3C//DTD SVG 1.1//EN"
 "http://www.w3.org/Graphics/SVG/1.1/DTD/svg11.dtd">
<!-- Generated by graphviz version 2.44.0 (20200518.1210)
 -->
<!-- Title: G Pages: 1 -->
<svg width="255pt" height="339pt"
 viewBox="0.00 0.00 255.11 338.80" xmlns="http://www.w3.org/2000/svg" xmlns:xlink="http://www.w3.org/1999/xlink">
<g id="graph0" class="graph" transform="scale(1 1) rotate(0) translate(4 334.8)">
<title>G</title>
<polygon fill="white" stroke="transparent" points="-4,4 -4,-334.8 251.11,-334.8 251.11,4 -4,4"/>
<!-- n0 -->
<g id="node1" class="node">
<title>n0</title>
<polygon fill="white" stroke="black" stroke-width="2" points="125.5,-279.6 101.17,-279.6 101.17,-256.8 125.5,-256.8 125.5,-279.6"/>
<text text-anchor="middle" x="113.34" y="-264.6" font-family="Helvetica,sans-Serif" font-weight="bold" font-size="12.00" fill="blue">jz</text>
</g>
<!-- n3 -->
<g id="node4" class="node">
<title>n3</title>
<polygon fill="white" stroke="black" stroke-width="2" points="79.17,-228.2 47.5,-228.2 47.5,-205.4 79.17,-205.4 79.17,-228.2"/>
<text text-anchor="middle" x="63.34" y="-213.2" font-family="Helvetica,sans-Serif" font-weight="bold" font-size="12.00" fill="blue">jgz</text>
</g>
<!-- n0&#45;&gt;n3 -->
<g id="edge3" class="edge">
<title>n0&#45;&gt;n3</title>
<path fill="none" stroke="black" stroke-width="2" d="M98.97,-253.01C90.98,-245.12 81.21,-235.46 73.92,-228.26"/>
<polygon fill="black" stroke="black" stroke-width="2" points="97.94,-254.45 102.73,-256.72 100.4,-251.96 97.94,-254.45"/>
</g>
<!-- n4 -->
<g id="node5" class="node">
<title>n4</title>
<polygon fill="white" stroke="black" stroke-width="2" points="125.35,-228.2 101.32,-228.2 101.32,-205.4 125.35,-205.4 125.35,-228.2"/>
<text text-anchor="middle" x="113.34" y="-213.2" font-family="Helvetica,sans-Serif" font-weight="bold" font-size="12.00" fill="purple">{}</text>
</g>
<!-- n0&#45;&gt;n4 -->
<g id="edge4" class="edge">
<title>n0&#45;&gt;n4</title>
<path fill="none" stroke="black" stroke-width="2" d="M113.34,-251.7C113.34,-244.07 113.34,-235.07 113.34,-228.26"/>
<polygon fill="black" stroke="black" stroke-width="2" points="111.59,-251.72 113.34,-256.72 115.09,-251.72 111.59,-251.72"/>
</g>
<!-- n1 -->
<g id="node2" class="node">
<title>n1</title>
<polygon fill="white" stroke="black" stroke-width="2" points="180.34,-331 88.33,-331 88.33,-308.2 180.34,-308.2 180.34,-331"/>
<text text-anchor="middle" x="134.34" y="-316" font-family="Helvetica,sans-Serif" font-weight="bold" font-size="12.00" fill="darkgreen">&lt;PROGRAM&gt;</text>
</g>
<!-- n1&#45;&gt;n0 -->
<g id="edge1" class="edge">
<title>n1&#45;&gt;n0</title>
<path fill="none" stroke="black" stroke-width="2" d="M127.75,-303.1C124.5,-295.47 120.68,-286.47 117.78,-279.66"/>
<polygon fill="black" stroke="black" stroke-width="2" points="126.32,-304.21 129.88,-308.12 129.54,-302.84 126.32,-304.21"/>
</g>
<!-- n2 -->
<g id="node3" class="node">
<title>n2</title>
<polygon fill="white" stroke="black" stroke-width="2" points="187.35,-279.6 163.32,-279.6 163.32,-256.8 187.35,-256.8 187.35,-279.6"/>
<text text-anchor="middle" x="175.34" y="-264.6" font-family="Helvetica,sans-Serif" font-weight="bold" font-size="12.00" fill="purple">{}</text>
</g>
<!-- n1&#45;&gt;n2 -->
<g id="edge2" class="edge">
<title>n1&#45;&gt;n2</title>
<path fill="none" stroke="black" stroke-width="2" d="M146.47,-303.98C152.96,-296.17 160.79,-286.73 166.65,-279.66"/>
<polygon fill="black" stroke="black" stroke-width="2" points="144.88,-303.16 143.03,-308.12 147.57,-305.39 144.88,-303.16"/>
</g>
<!-- n5 -->
<g id="node6" class="node">
<title>n5</title>
<polygon fill="white" stroke="black" stroke-width="2" points="246.89,-228.2 143.78,-228.2 143.78,-205.4 246.89,-205.4 246.89,-228.2"/>
<text text-anchor="middle" x="195.34" y="-213.2" font-family="Helvetica,sans-Serif" font-weight="bold" font-size="12.00">&quot;1 + 1 is not 2!?&quot;</text>
</g>
<!-- n2&#45;&gt;n5 -->
<g id="edge5" class="edge">
<title>n2&#45;&gt;n5</title>
<path fill="none" stroke="black" stroke-width="2" d="M181.61,-251.7C184.7,-244.07 188.34,-235.07 191.1,-228.26"/>
<polygon fill="black" stroke="black" stroke-width="2" points="179.83,-251.43 179.58,-256.72 183.08,-252.75 179.83,-251.43"/>
</g>
<!-- n6 -->
<g id="node7" class="node">
<title>n6</title>
<polygon fill="white" stroke="black" stroke-width="2" points="77.35,-176.8 41.32,-176.8 41.32,-154 77.35,-154 77.35,-176.8"/>
<text text-anchor="middle" x="59.34" y="-161.8" font-family="Helvetica,sans-Serif" font-weight="bold" font-size="12.00" fill="blue">dup</text>
</g>
<!-- n3&#45;&gt;n6 -->
<g id="edge6" class="edge">
<title>n3&#45;&gt;n6</title>
<path fill="none" stroke="black" stroke-width="2" d="M62.08,-200.3C61.46,-192.67 60.73,-183.67 60.18,-176.86"/>
<polygon fill="black" stroke="black" stroke-width="2" points="60.34,-200.48 62.49,-205.32 63.83,-200.2 60.34,-200.48"/>
</g>
<!-- n7 -->
<g id="node8" class="node">
<title>n7</title>
<polygon fill="white" stroke="black" stroke-width="2" points="135.35,-176.8 99.32,-176.8 99.32,-154 135.35,-154 135.35,-176.8"/>
<text text-anchor="middle" x="117.34" y="-161.8" font-family="Helvetica,sans-Serif" font-weight="bold" font-size="12.00" fill="blue">pop</text>
</g>
<!-- n4&#45;&gt;n7 -->
<g id="edge7" class="edge">
<title>n4&#45;&gt;n7</title>
<path fill="none" stroke="black" stroke-width="2" d="M114.59,-200.3C115.21,-192.67 115.94,-183.67 116.49,-176.86"/>
<polygon fill="black" stroke="black" stroke-width="2" points="112.84,-200.2 114.18,-205.32 116.33,-200.48 112.84,-200.2"/>
</g>
<!-- n8 -->
<g id="node9" class="node">
<title>n8</title>
<polygon fill="white" stroke="black" stroke-width="2" points="66.18,-125.4 36.49,-125.4 36.49,-102.6 66.18,-102.6 66.18,-125.4"/>
<text text-anchor="middle" x="51.34" y="-110.4" font-family="Helvetica,sans-Serif" font-weight="bold" font-size="12.00" fill="blue">eq</text>
</g>
<!-- n6&#45;&gt;n8 -->
<g id="edge8" class="edge">
<title>n6&#45;&gt;n8</title>
<path fill="none" stroke="black" stroke-width="2" d="M56.83,-148.9C55.59,-141.27 54.13,-132.27 53.03,-125.46"/>
<polygon fill="black" stroke="black" stroke-width="2" points="55.11,-149.27 57.64,-153.92 58.57,-148.71 55.11,-149.27"/>
</g>
<!-- n9 -->
<g id="node10" class="node">
<title>n9</title>
<polygon fill="white" stroke="black" stroke-width="2" points="159.05,-125.4 83.62,-125.4 83.62,-102.6 159.05,-102.6 159.05,-125.4"/>
<text text-anchor="middle" x="121.34" y="-110.4" font-family="Helvetica,sans-Serif" font-weight="bold" font-size="12.00">&quot;1 + 1 = 2!&quot;</text>
</g>
<!-- n7&#45;&gt;n9 -->
<g id="edge9" class="edge">
<title>n7&#45;&gt;n9</title>
<path fill="none" stroke="black" stroke-width="2" d="M118.59,-148.9C119.21,-141.27 119.94,-132.27 120.49,-125.46"/>
<polygon fill="black" stroke="black" stroke-width="2" points="116.84,-148.8 118.18,-153.92 120.33,-149.08 116.84,-148.8"/>
</g>
<!-- n10 -->
<g id="node11" class="node">
<title>n10</title>
<polygon fill="white" stroke="black" stroke-width="2" points="42.84,-74 19.83,-74 19.83,-51.2 42.84,-51.2 42.84,-74"/>
<text text-anchor="middle" x="31.34" y="-59" font-family="Helvetica,sans-Serif" font-weight="bold" font-size="12.00" fill="blue">+</text>
</g>
<!-- n8&#45;&gt;n10 -->
<g id="edge10" class="edge">
<title>n8&#45;&gt;n10</title>
<path fill="none" stroke="black" stroke-width="2" d="M45.06,-97.5C41.97,-89.87 38.33,-80.87 35.57,-74.06"/>
<polygon fill="black" stroke="black" stroke-width="2" points="43.6,-98.55 47.09,-102.52 46.84,-97.23 43.6,-98.55"/>
</g>
<!-- n11 -->
<g id="node12" class="node">
<title>n11</title>
<polygon fill="white" stroke="black" stroke-width="2" points="83.51,-74 61.16,-74 61.16,-51.2 83.51,-51.2 83.51,-74"/>
<text text-anchor="middle" x="72.34" y="-59" font-family="Helvetica,sans-Serif" font-weight="bold" font-size="12.00">2</text>
</g>
<!-- n8&#45;&gt;n11 -->
<g id="edge11" class="edge">
<title>n8&#45;&gt;n11</title>
<path fill="none" stroke="black" stroke-width="2" d="M57.92,-97.5C61.17,-89.87 64.99,-80.87 67.89,-74.06"/>
<polygon fill="black" stroke="black" stroke-width="2" points="56.13,-97.24 55.79,-102.52 59.36,-98.61 56.13,-97.24"/>
</g>
<!-- n12 -->
<g id="node13" class="node">
<title>n12</title>
<polygon fill="white" stroke="black" stroke-width="2" points="22.51,-22.6 0.16,-22.6 0.16,0.2 22.51,0.2 22.51,-22.6"/>
<text text-anchor="middle" x="11.34" y="-7.6" font-family="Helvetica,sans-Serif" font-weight="bold" font-size="12.00">1</text>
</g>
<!-- n10&#45;&gt;n12 -->
<g id="edge12" class="edge">
<title>n10&#45;&gt;n12</title>
<path fill="none" stroke="black" stroke-width="2" d="M25.06,-46.1C21.97,-38.47 18.33,-29.47 15.57,-22.66"/>
<polygon fill="black" stroke="black" stroke-width="2" points="23.6,-47.15 27.09,-51.12 26.84,-45.83 23.6,-47.15"/>
</g>
<!-- n13 -->
<g id="node14" class="node">
<title>n13</title>
<polygon fill="white" stroke="black" stroke-width="2" points="63.51,-22.6 41.16,-22.6 41.16,0.2 63.51,0.2 63.51,-22.6"/>
<text text-anchor="middle" x="52.34" y="-7.6" font-family="Helvetica,sans-Serif" font-weight="bold" font-size="12.00">1</text>
</g>
<!-- n10&#45;&gt;n13 -->
<g id="edge13" class="edge">
<title>n10&#45;&gt;n13</title>
<path fill="none" stroke="black" stroke-width="2" d="M37.92,-46.1C41.17,-38.47 44.99,-29.47 47.89,-22.66"/>
<polygon fill="black" stroke="black" stroke-width="2" points="36.13,-45.84 35.79,-51.12 39.36,-47.21 36.13,-45.84"/>
</g>
</g>
</svg>
